<svg width="100%" height="100%" viewBox="0 0 70 71" fill="none" xmlns="http://www.w3.org/2000/svg">
<path d="M7.65625 35.5C7.65625 42.752 10.5371 49.707 15.665 54.835C20.793 59.9629 27.748 62.8438 35 62.8438C42.252 62.8438 49.207 59.9629 54.335 54.835C59.4629 49.707 62.3438 42.752 62.3438 35.5C62.3438 28.248 59.4629 21.293 54.335 16.165C49.207 11.0371 42.252 8.15625 35 8.15625C27.748 8.15625 20.793 11.0371 15.665 16.165C10.5371 21.293 7.65625 28.248 7.65625 35.5Z" stroke="currentColor" stroke-width="4.375" stroke-linecap="round" stroke-linejoin="round"/>
<path d="M45.9375 46.4375C45.9375 46.4375 41.8359 40.9688 35 40.9688C28.1641 40.9688 24.0625 46.4375 24.0625 46.4375" stroke="currentColor" stroke-width="4.375" stroke-linecap="round" stroke-linejoin="round"/>
<path d="M26.7969 27.2969H26.8242" stroke="currentColor" stroke-width="4.375" stroke-linecap="round" stroke-linejoin="round"/>
<path d="M43.2031 27.2969H43.2305" stroke="currentColor" stroke-width="4.375" stroke-linecap="round" stroke-linejoin="round"/>
</svg>
